<svg id="Layer_1" data-name="Layer 1" xmlns="http://www.w3.org/2000/svg" viewBox="0 0 100 100"><defs><style>.cls-1{fill:#facc15;}.cls-2{fill:#a16207;}.cls-3{fill:#eab308;}.cls-4{fill:#f7c815;}</style></defs><path class="cls-1" d="M72.07,41.49s4.17,16-13.14,24.55a2,2,0,0,1-1.37,3.37,2,2,0,0,1-2-1.93c-6.16,2.33-14.53,3.81-25.85,3.75-3.5-4-4.33-9.15-1.69-12.45l-.13-.21c-4.86-.74-8-6.53-7-12.93s5.69-11,10.55-10.27l.13-.21C29.78,30.59,33.22,25,39.25,22.6s12.37-.57,14.17,4l.22.11c3.06-3.84,9.65-3.68,14.72.36S75,37.5,72,41.34Z"/><circle class="cls-2" cx="42.69" cy="33.19" r="1.96"/><circle class="cls-2" cx="61.02" cy="35.15" r="1.96"/><circle class="cls-2" cx="68.46" cy="52.14" r="1.96"/><circle class="cls-2" cx="38.85" cy="65.09" r="1.96"/><circle class="cls-2" cx="31.71" cy="47.8" r="1.96"/><circle class="cls-2" cx="50" cy="50.17" r="1.96"/><path class="cls-3" d="M79.11,54.42c-1,6.41-5.69,11-10.55,10.27l-.12.15C70.23,69.41,66.8,75,60.76,77.4s-12.37.57-14.16-4l-.21,0c-3.07,3.84-9.66,3.67-14.72-.37a14.46,14.46,0,0,1-1.92-1.82h0c11.32.06,19.69-1.42,25.85-3.75a2,2,0,0,0,3.92,0A1.94,1.94,0,0,0,58.93,66c17.31-8.52,13.14-24.55,13.14-24.55C76.93,42.23,80.08,48,79.11,54.42Z"/><path class="cls-4" d="M59.52,67.45a2,2,0,0,1-3.92,0q1.78-.67,3.33-1.44A1.94,1.94,0,0,1,59.52,67.45Z"/><path class="cls-2" d="M59.52,67.45a2,2,0,0,1-3.92,0v0A2,2,0,0,1,58.93,66,1.94,1.94,0,0,1,59.52,67.45Z"/></svg>