<svg id="Layer_1" data-name="Layer 1" xmlns="http://www.w3.org/2000/svg" viewBox="0 0 1000 1000"><defs><style>.cls-1{fill:#4d4d4d;}.cls-2{fill:#ff91d6;}</style></defs><ellipse class="cls-1" cx="496.86" cy="550.99" rx="443.89" ry="407.76"/><path class="cls-1" d="M296.79,211.4l-177.91,126-1.22-4.87v0L66.77,127.77c-.11-.43-.21-.84-.34-1.27C56.77,87.69,63.07,53.82,84.34,44c11.71-5.4,26-2.63,40.43,6.4l.07,0,29.71,27.84,0,0,104.47,97.77Z"/><path class="cls-2" d="M527.14,573.11a33.31,33.31,0,0,1-26.37,32.57,33.71,33.71,0,0,1-13.86,0,33.32,33.32,0,0,1-26.38-32.57,32.32,32.32,0,0,1,.41-5.24,20.13,20.13,0,0,1,18.44-12.16h29.16a20.11,20.11,0,0,1,18,11.28A31.6,31.6,0,0,1,527.14,573.11Z"/><path class="cls-2" d="M531.49,676.89v9.29H462.2V674.4a107.7,107.7,0,0,0,31-62.31c.26-1.87.45-3.77.61-5.68h3c.16,1.91.37,3.81.64,5.68A107.56,107.56,0,0,0,531.49,676.89Z"/><path class="cls-2" d="M532.83,687.51h-72V673.84l.39-.39a106.9,106.9,0,0,0,30.64-61.54c.26-1.86.45-3.73.61-5.61l.1-1.22h5.49l.1,1.22q.24,2.82.63,5.6a106.61,106.61,0,0,0,33.58,64l.43.4Zm-69.3-2.67h66.62v-7.37a109.24,109.24,0,0,1-34-65.2c-.21-1.49-.39-3-.54-4.52h-.57c-.14,1.52-.3,3-.52,4.53a109.51,109.51,0,0,1-31,62.67Z"/><path class="cls-2" d="M496.85,721.18a34.65,34.65,0,0,0,34.65-34.65H462.19A34.65,34.65,0,0,0,496.85,721.18Z"/><path class="cls-2" d="M496.85,722.52a36,36,0,0,1-36-36v-1.34h72v1.34A36,36,0,0,1,496.85,722.52Zm-33.29-34.65a33.31,33.31,0,0,0,66.57,0Z"/><path d="M390,710c-56.3,0-105-45.1-109.86-103.1l10.67-.9c4.56,54.25,51.37,96,104.35,93.15a97.69,97.69,0,0,0,63.28-28.52,102.82,102.82,0,0,0,29.48-59.21c.26-1.82.44-3.62.59-5.42l10.67.91c-.17,2-.37,4-.65,6A113.62,113.62,0,0,1,466,678.2a108.35,108.35,0,0,1-70.23,31.6C393.81,709.91,391.89,710,390,710Z"/><path d="M601.58,710c-26.74,0-53.33-10.45-73.71-29.12a113.27,113.27,0,0,1-35.67-68c-.28-1.94-.51-3.94-.68-5.94l10.67-.91c.15,1.8.36,3.6.61,5.37a102.57,102.57,0,0,0,32.31,61.61c19.66,18,45.69,27.55,71.41,26.17,49.14-2.68,89.28-42.72,93.37-93.13l10.67.87c-4.52,55.72-49,100-103.46,102.95Q604.34,710,601.58,710Z"/><path class="cls-1" d="M705.22,219.07,877.47,354.5l1.47-4.82v0l61.42-202.94c.13-.43.26-.83.41-1.26,11.66-38.47,7-72.79-13.81-83.73-11.49-6-26-3.95-40.92,4.39l-.07,0L854.73,92.6l0,0L744.9,185.5Z"/><path d="M236.83,457l-6.74-4.37c1.34-2.06,33.13-50,91.73-50h1.82c56.42,1,86.59,45,89.85,50L406.75,457c-3-4.65-31-45.46-83.25-46.35C268.16,409.64,238.08,455.09,236.83,457Z"/><path d="M593.35,457l-6.73-4.37c1.33-2.06,33.12-50,91.72-50h1.82c56.43,1,86.6,45,89.85,50L763.28,457c-3-4.65-31-45.46-83.26-46.35C624.68,409.64,594.6,455.09,593.35,457Z"/></svg>