<svg id="Layer_1" data-name="Layer 1" xmlns="http://www.w3.org/2000/svg" xmlns:xlink="http://www.w3.org/1999/xlink" viewBox="0 0 100 100"><defs><style>.cls-1{fill:#fff;}.cls-2{fill:url(#linear-gradient);}.cls-3{fill:url(#linear-gradient-2);}</style><linearGradient id="linear-gradient" x1="53.66" y1="33.78" x2="64.92" y2="52.5" gradientUnits="userSpaceOnUse"><stop offset="0.06" stop-color="#fff"/><stop offset="1" stop-color="#c4b5fd"/></linearGradient><linearGradient id="linear-gradient-2" x1="42.99" y1="52.68" x2="55.58" y2="48.1" gradientUnits="userSpaceOnUse"><stop offset="0.17" stop-color="#c4b5fd"/><stop offset="0.85" stop-color="#fff"/></linearGradient></defs><path class="cls-1" d="M59,28.94a27.43,27.43,0,0,0-14.53-3.89H34.27a.57.57,0,0,0-.57.57V75l10.75-3.71V56.69a28.27,28.27,0,0,0,12.9-3c.48-.25,1-.52,1.42-.81l.21-.13c4.65-2.95,7.32-7.29,7.32-11.92S63.63,31.89,59,28.94Zm-14.27,17a.29.29,0,0,1-.16-.07.3.3,0,0,1-.1-.22V36.1a.29.29,0,0,1,.2-.28h.06a18.5,18.5,0,0,1,5.19.76l.33.1c3.39,1.1,5.32,3,5.32,4.2,0,.93-1.15,2.27-3.22,3.33A17.26,17.26,0,0,1,44.71,45.93Z"/><path class="cls-2" d="M66.3,40.87c0,4.63-2.67,9-7.32,11.92l-.21.13c1.36-10.87-4-14.81-8.54-16.25l-.33-.1-.31-.09a20.41,20.41,0,0,0-4.94-.66h-.2V25.05A27.43,27.43,0,0,1,59,28.94C63.63,31.89,66.3,36.24,66.3,40.87Z"/><path class="cls-3" d="M57.35,53.73a28.27,28.27,0,0,1-12.9,3v-11a.32.32,0,0,0,.1.2.3.3,0,0,0,.16.07,17.26,17.26,0,0,0,7.62-1.73Z"/></svg>